solid no parts proto
facet normal 1.0 0.0 0.0
  outer loop
    vertex 2.875 1.25 6.938893903907228e-18
    vertex 2.875 0.75 0.125
    vertex 2.875 0.75 6.938893903907228e-18
  endloop
endfacet
facet normal 1.0 0.0 0.0
  outer loop
    vertex 2.875 0.75 0.125
    vertex 2.875 1.25 6.938893903907228e-18
    vertex 2.875 1.25 0.125
  endloop
endfacet
facet normal 0.0 1.0 0.0
  outer loop
    vertex 2.875 0.75 0.125
    vertex 3.0 0.75 6.938893903907228e-18
    vertex 2.875 0.75 6.938893903907228e-18
  endloop
endfacet
facet normal 0.0 1.0 0.0
  outer loop
    vertex 3.0 0.75 6.938893903907228e-18
    vertex 2.875 0.75 0.125
    vertex 3.0 0.75 0.125
  endloop
endfacet
facet normal 1.0 0.0 0.0
  outer loop
    vertex 3.0 1.5 1.3877787807814457e-17
    vertex 3.0 1.25 0.125
    vertex 3.0 1.25 6.938893903907228e-18
  endloop
endfacet
facet normal 1.0 0.0 0.0
  outer loop
    vertex 3.0 1.25 0.125
    vertex 3.0 1.5 1.3877787807814457e-17
    vertex 3.0 1.5 0.125
  endloop
endfacet
facet normal 0.0 -1.0 0.0
  outer loop
    vertex 3.0 1.25 0.125
    vertex 2.875 1.25 6.938893903907228e-18
    vertex 3.0 1.25 6.938893903907228e-18
  endloop
endfacet
facet normal 0.0 -1.0 0.0
  outer loop
    vertex 2.875 1.25 6.938893903907228e-18
    vertex 3.0 1.25 0.125
    vertex 2.875 1.25 0.125
  endloop
endfacet
facet normal 1.0 0.0 0.0
  outer loop
    vertex 2.875 6.25 -6.938893903907228e-18
    vertex 2.875 5.75 0.125
    vertex 2.875 5.75 -6.938893903907228e-18
  endloop
endfacet
facet normal 1.0 0.0 0.0
  outer loop
    vertex 2.875 5.75 0.125
    vertex 2.875 6.25 -6.938893903907228e-18
    vertex 2.875 6.25 0.125
  endloop
endfacet
facet normal 0.0 -1.0 0.0
  outer loop
    vertex 3.0 6.25 0.125
    vertex 2.875 6.25 -6.938893903907228e-18
    vertex 3.0 6.25 -6.938893903907228e-18
  endloop
endfacet
facet normal 0.0 -1.0 0.0
  outer loop
    vertex 2.875 6.25 -6.938893903907228e-18
    vertex 3.0 6.25 0.125
    vertex 2.875 6.25 0.125
  endloop
endfacet
facet normal 0.0 1.0 0.0
  outer loop
    vertex 2.875 5.75 0.125
    vertex 3.0 5.75 -6.938893903907228e-18
    vertex 2.875 5.75 -6.938893903907228e-18
  endloop
endfacet
facet normal 0.0 1.0 0.0
  outer loop
    vertex 3.0 5.75 -6.938893903907228e-18
    vertex 2.875 5.75 0.125
    vertex 3.0 5.75 0.125
  endloop
endfacet
facet normal 1.0 0.0 0.0
  outer loop
    vertex 3.0 6.5 6.938893903907228e-18
    vertex 3.0 6.25 0.125
    vertex 3.0 6.25 -6.938893903907228e-18
  endloop
endfacet
facet normal 1.0 0.0 0.0
  outer loop
    vertex 3.0 6.25 0.125
    vertex 3.0 6.5 6.938893903907228e-18
    vertex 3.0 6.5 0.125
  endloop
endfacet
facet normal 1.0 0.0 0.0
  outer loop
    vertex 2.0 5.0 1.3877787807814457e-17
    vertex 2.0 2.0 0.125
    vertex 2.0 2.0 1.3877787807814457e-17
  endloop
endfacet
facet normal 1.0 0.0 0.0
  outer loop
    vertex 2.0 2.0 0.125
    vertex 2.0 5.0 1.3877787807814457e-17
    vertex 2.0 5.0 0.125
  endloop
endfacet
facet normal 0.0 1.0 0.0
  outer loop
    vertex 2.0 2.0 0.125
    vertex 2.5 2.0 1.3877787807814457e-17
    vertex 2.0 2.0 1.3877787807814457e-17
  endloop
endfacet
facet normal 0.0 1.0 0.0
  outer loop
    vertex 2.5 2.0 1.3877787807814457e-17
    vertex 2.0 2.0 0.125
    vertex 2.5 2.0 0.125
  endloop
endfacet
facet normal 0.0 -1.0 0.0
  outer loop
    vertex 2.5 5.0 0.125
    vertex 2.0 5.0 1.3877787807814457e-17
    vertex 2.5 5.0 6.938893903907228e-18
  endloop
endfacet
facet normal 0.0 -1.0 0.0
  outer loop
    vertex 2.0 5.0 1.3877787807814457e-17
    vertex 2.5 5.0 0.125
    vertex 2.0 5.0 0.125
  endloop
endfacet
facet normal 1.0 0.0 0.0
  outer loop
    vertex 3.0 5.75 -6.938893903907228e-18
    vertex 3.0 5.5 0.125
    vertex 3.0 5.5 6.938893903907228e-18
  endloop
endfacet
facet normal 1.0 0.0 0.0
  outer loop
    vertex 3.0 5.5 0.125
    vertex 3.0 5.75 -6.938893903907228e-18
    vertex 3.0 5.75 0.125
  endloop
endfacet
facet normal -0.0 -1.0 -0.0
  outer loop
    vertex 1.5 0.125 0.125
    vertex 0.5 0.125 0.0
    vertex 1.5 0.125 0.0
  endloop
endfacet
facet normal -0.0 -1.0 -0.0
  outer loop
    vertex 0.5 0.125 0.0
    vertex 1.5 0.125 0.125
    vertex 0.5 0.125 0.125
  endloop
endfacet
facet normal 1.0 0.0 0.0
  outer loop
    vertex 0.5 0.125 0.0
    vertex 0.5 0.0 0.125
    vertex 0.5 0.0 0.0
  endloop
endfacet
facet normal 1.0 0.0 0.0
  outer loop
    vertex 0.5 0.0 0.125
    vertex 0.5 0.125 0.0
    vertex 0.5 0.125 0.125
  endloop
endfacet
facet normal 0.0 0.0 1.0
  outer loop
    vertex 0.5 0.0 0.125
    vertex 0.0 5.0 0.125
    vertex 0.0 0.0 0.125
  endloop
endfacet
facet normal 0.0 0.0 1.0
  outer loop
    vertex 0.0 5.0 0.125
    vertex 0.5 0.0 0.125
    vertex 0.125 5.0 0.125
  endloop
endfacet
facet normal 0.0 0.0 1.0
  outer loop
    vertex 0.125 5.0 0.125
    vertex 0.5 0.0 0.125
    vertex 0.125 6.0 0.125
  endloop
endfacet
facet normal 0.0 0.0 1.0
  outer loop
    vertex 2.5 0.0 0.125
    vertex 1.5 0.125 0.125
    vertex 1.5 0.0 0.125
  endloop
endfacet
facet normal 0.0 0.0 1.0
  outer loop
    vertex 1.5 0.125 0.125
    vertex 2.5 0.0 0.125
    vertex 2.0 2.0 0.125
  endloop
endfacet
facet normal 0.0 0.0 1.0
  outer loop
    vertex 2.0 2.0 0.125
    vertex 2.5 0.0 0.125
    vertex 2.5 2.0 0.125
  endloop
endfacet
facet normal 0.0 0.0 1.0
  outer loop
    vertex 2.5 2.0 0.125
    vertex 2.5 0.0 0.125
    vertex 2.875 0.75 0.125
  endloop
endfacet
facet normal 0.0 0.0 1.0
  outer loop
    vertex 2.875 0.75 0.125
    vertex 2.5 0.0 0.125
    vertex 3.0 0.5 0.125
  endloop
endfacet
facet normal 0.0 0.0 1.0
  outer loop
    vertex 2.875 0.75 0.125
    vertex 3.0 0.5 0.125
    vertex 3.0 0.75 0.125
  endloop
endfacet
facet normal 0.0 0.0 1.0
  outer loop
    vertex 0.125 6.0 0.125
    vertex 0.0 7.0 0.125
    vertex 0.0 6.0 0.125
  endloop
endfacet
facet normal 0.0 0.0 1.0
  outer loop
    vertex 0.0 7.0 0.125
    vertex 0.125 6.0 0.125
    vertex 2.5 7.0 0.125
  endloop
endfacet
facet normal 0.0 0.0 1.0
  outer loop
    vertex 2.5 7.0 0.125
    vertex 0.125 6.0 0.125
    vertex 0.5 0.125 0.125
  endloop
endfacet
facet normal 0.0 0.0 1.0
  outer loop
    vertex 0.5 0.125 0.125
    vertex 0.125 6.0 0.125
    vertex 0.5 0.0 0.125
  endloop
endfacet
facet normal 0.0 0.0 1.0
  outer loop
    vertex 2.5 7.0 0.125
    vertex 0.5 0.125 0.125
    vertex 2.0 5.0 0.125
  endloop
endfacet
facet normal 0.0 0.0 1.0
  outer loop
    vertex 2.0 5.0 0.125
    vertex 0.5 0.125 0.125
    vertex 1.5 0.125 0.125
  endloop
endfacet
facet normal 0.0 0.0 1.0
  outer loop
    vertex 2.0 5.0 0.125
    vertex 1.5 0.125 0.125
    vertex 2.0 2.0 0.125
  endloop
endfacet
facet normal 0.0 0.0 1.0
  outer loop
    vertex 2.5 7.0 0.125
    vertex 2.0 5.0 0.125
    vertex 2.5 5.0 0.125
  endloop
endfacet
facet normal 0.0 0.0 1.0
  outer loop
    vertex 2.5 7.0 0.125
    vertex 2.5 5.0 0.125
    vertex 2.875 5.75 0.125
  endloop
endfacet
facet normal 0.0 0.0 1.0
  outer loop
    vertex 2.875 5.75 0.125
    vertex 2.5 5.0 0.125
    vertex 3.0 5.5 0.125
  endloop
endfacet
facet normal 0.0 0.0 1.0
  outer loop
    vertex 2.875 5.75 0.125
    vertex 3.0 5.5 0.125
    vertex 3.0 5.75 0.125
  endloop
endfacet
facet normal 0.0 0.0 1.0
  outer loop
    vertex 2.5 7.0 0.125
    vertex 2.875 6.25 0.125
    vertex 3.0 6.5 0.125
  endloop
endfacet
facet normal 0.0 0.0 1.0
  outer loop
    vertex 2.875 6.25 0.125
    vertex 2.5 7.0 0.125
    vertex 2.875 5.75 0.125
  endloop
endfacet
facet normal 0.0 0.0 1.0
  outer loop
    vertex 3.0 6.5 0.125
    vertex 2.875 6.25 0.125
    vertex 3.0 6.25 0.125
  endloop
endfacet
facet normal 0.0 0.0 1.0
  outer loop
    vertex 2.5 2.0 0.125
    vertex 2.875 1.25 0.125
    vertex 3.0 1.5 0.125
  endloop
endfacet
facet normal 0.0 0.0 1.0
  outer loop
    vertex 2.875 1.25 0.125
    vertex 2.5 2.0 0.125
    vertex 2.875 0.75 0.125
  endloop
endfacet
facet normal 0.0 0.0 1.0
  outer loop
    vertex 3.0 1.5 0.125
    vertex 2.875 1.25 0.125
    vertex 3.0 1.25 0.125
  endloop
endfacet
facet normal 0.0 -1.0 0.0
  outer loop
    vertex 2.5 0.0 0.125
    vertex 1.5 0.0 0.0
    vertex 2.5 0.0 0.0
  endloop
endfacet
facet normal 0.0 -1.0 0.0
  outer loop
    vertex 1.5 0.0 0.0
    vertex 2.5 0.0 0.125
    vertex 1.5 0.0 0.125
  endloop
endfacet
facet normal -1.0 0.0 0.0
  outer loop
    vertex 1.5 0.125 0.125
    vertex 1.5 0.0 0.0
    vertex 1.5 0.0 0.125
  endloop
endfacet
facet normal -1.0 0.0 0.0
  outer loop
    vertex 1.5 0.0 0.0
    vertex 1.5 0.125 0.125
    vertex 1.5 0.125 0.0
  endloop
endfacet
facet normal 0.0 -1.0 0.0
  outer loop
    vertex 0.5 0.0 0.125
    vertex 0.0 0.0 0.0
    vertex 0.5 0.0 0.0
  endloop
endfacet
facet normal 0.0 -1.0 0.0
  outer loop
    vertex 0.0 0.0 0.0
    vertex 0.5 0.0 0.125
    vertex 0.0 0.0 0.125
  endloop
endfacet
facet normal -1.0 0.0 0.0
  outer loop
    vertex 0.0 7.0 0.125
    vertex 0.0 6.0 2.0816681711721685e-17
    vertex 0.0 6.0 0.125
  endloop
endfacet
facet normal -1.0 0.0 0.0
  outer loop
    vertex 0.0 6.0 2.0816681711721685e-17
    vertex 0.0 7.0 0.125
    vertex 0.0 7.0 0.0
  endloop
endfacet
facet normal -3.1214306499729455e-18 8.902501001875703e-20 -1.0
  outer loop
    vertex 2.5 7.0 6.938893903907228e-18
    vertex 0.0 6.0 2.0816681711721685e-17
    vertex 0.0 7.0 0.0
  endloop
endfacet
facet normal -3.1214306499729455e-18 8.902501001875703e-20 -1.0
  outer loop
    vertex 0.0 6.0 2.0816681711721685e-17
    vertex 2.5 7.0 6.938893903907228e-18
    vertex 0.125 6.0 2.0816681711721685e-17
  endloop
endfacet
facet normal -3.1214306499729455e-18 8.902501001875703e-20 -1.0
  outer loop
    vertex 0.125 6.0 2.0816681711721685e-17
    vertex 2.5 7.0 6.938893903907228e-18
    vertex 0.125 5.0 2.0816681711721685e-17
  endloop
endfacet
facet normal -3.1214306499729455e-18 8.902501001875703e-20 -1.0
  outer loop
    vertex 0.125 5.0 2.0816681711721685e-17
    vertex 2.5 7.0 6.938893903907228e-18
    vertex 0.5 0.125 0.0
  endloop
endfacet
facet normal -3.1214306499729455e-18 8.902501001875703e-20 -1.0
  outer loop
    vertex 0.5 0.125 0.0
    vertex 2.5 7.0 6.938893903907228e-18
    vertex 2.0 5.0 1.3877787807814457e-17
  endloop
endfacet
facet normal -3.1214306499729455e-18 8.902501001875703e-20 -1.0
  outer loop
    vertex 0.5 0.125 0.0
    vertex 2.0 5.0 1.3877787807814457e-17
    vertex 1.5 0.125 0.0
  endloop
endfacet
facet normal -3.1214306499729455e-18 8.902501001875703e-20 -1.0
  outer loop
    vertex 1.5 0.125 0.0
    vertex 2.0 5.0 1.3877787807814457e-17
    vertex 1.5 0.0 0.0
  endloop
endfacet
facet normal -3.1214306499729455e-18 8.902501001875703e-20 -1.0
  outer loop
    vertex 2.0 5.0 1.3877787807814457e-17
    vertex 2.5 7.0 6.938893903907228e-18
    vertex 2.5 5.0 6.938893903907228e-18
  endloop
endfacet
facet normal -3.1214306499729455e-18 8.902501001875703e-20 -1.0
  outer loop
    vertex 2.5 5.0 6.938893903907228e-18
    vertex 2.5 7.0 6.938893903907228e-18
    vertex 2.875 6.25 -6.938893903907228e-18
  endloop
endfacet
facet normal -3.1214306499729455e-18 8.902501001875703e-20 -1.0
  outer loop
    vertex 2.875 6.25 -6.938893903907228e-18
    vertex 2.5 7.0 6.938893903907228e-18
    vertex 3.0 6.5 6.938893903907228e-18
  endloop
endfacet
facet normal -3.1214306499729455e-18 8.902501001875703e-20 -1.0
  outer loop
    vertex 2.875 6.25 -6.938893903907228e-18
    vertex 3.0 6.5 6.938893903907228e-18
    vertex 3.0 6.25 -6.938893903907228e-18
  endloop
endfacet
facet normal -3.1214306499729455e-18 8.902501001875703e-20 -1.0
  outer loop
    vertex 1.5 0.0 0.0
    vertex 2.0 2.0 1.3877787807814457e-17
    vertex 2.5 0.0 0.0
  endloop
endfacet
facet normal -3.1214306499729455e-18 8.902501001875703e-20 -1.0
  outer loop
    vertex 2.0 2.0 1.3877787807814457e-17
    vertex 1.5 0.0 0.0
    vertex 2.0 5.0 1.3877787807814457e-17
  endloop
endfacet
facet normal -3.1214306499729455e-18 8.902501001875703e-20 -1.0
  outer loop
    vertex 2.5 0.0 0.0
    vertex 2.0 2.0 1.3877787807814457e-17
    vertex 2.5 2.0 1.3877787807814457e-17
  endloop
endfacet
facet normal -3.1214306499729455e-18 8.902501001875703e-20 -1.0
  outer loop
    vertex 2.5 0.0 0.0
    vertex 2.5 2.0 1.3877787807814457e-17
    vertex 2.875 1.25 6.938893903907228e-18
  endloop
endfacet
facet normal -3.1214306499729455e-18 8.902501001875703e-20 -1.0
  outer loop
    vertex 2.875 1.25 6.938893903907228e-18
    vertex 2.5 2.0 1.3877787807814457e-17
    vertex 3.0 1.5 1.3877787807814457e-17
  endloop
endfacet
facet normal -3.1214306499729455e-18 8.902501001875703e-20 -1.0
  outer loop
    vertex 2.875 1.25 6.938893903907228e-18
    vertex 3.0 1.5 1.3877787807814457e-17
    vertex 3.0 1.25 6.938893903907228e-18
  endloop
endfacet
facet normal -3.1214306499729455e-18 8.902501001875703e-20 -1.0
  outer loop
    vertex 2.5 0.0 0.0
    vertex 2.875 0.75 6.938893903907228e-18
    vertex 3.0 0.5 0.0
  endloop
endfacet
facet normal -3.1214306499729455e-18 8.902501001875703e-20 -1.0
  outer loop
    vertex 2.875 0.75 6.938893903907228e-18
    vertex 2.5 0.0 0.0
    vertex 2.875 1.25 6.938893903907228e-18
  endloop
endfacet
facet normal -3.1214306499729455e-18 8.902501001875703e-20 -1.0
  outer loop
    vertex 3.0 0.5 0.0
    vertex 2.875 0.75 6.938893903907228e-18
    vertex 3.0 0.75 6.938893903907228e-18
  endloop
endfacet
facet normal -3.1214306499729455e-18 8.902501001875703e-20 -1.0
  outer loop
    vertex 2.5 5.0 6.938893903907228e-18
    vertex 2.875 5.75 -6.938893903907228e-18
    vertex 3.0 5.5 6.938893903907228e-18
  endloop
endfacet
facet normal -3.1214306499729455e-18 8.902501001875703e-20 -1.0
  outer loop
    vertex 2.875 5.75 -6.938893903907228e-18
    vertex 2.5 5.0 6.938893903907228e-18
    vertex 2.875 6.25 -6.938893903907228e-18
  endloop
endfacet
facet normal -3.1214306499729455e-18 8.902501001875703e-20 -1.0
  outer loop
    vertex 3.0 5.5 6.938893903907228e-18
    vertex 2.875 5.75 -6.938893903907228e-18
    vertex 3.0 5.75 -6.938893903907228e-18
  endloop
endfacet
facet normal -3.1214306499729455e-18 8.902501001875703e-20 -1.0
  outer loop
    vertex 0.125 5.0 2.0816681711721685e-17
    vertex 0.0 0.0 0.0
    vertex 0.0 5.0 2.0816681711721685e-17
  endloop
endfacet
facet normal -3.1214306499729455e-18 8.902501001875703e-20 -1.0
  outer loop
    vertex 0.0 0.0 0.0
    vertex 0.125 5.0 2.0816681711721685e-17
    vertex 0.5 0.0 0.0
  endloop
endfacet
facet normal -3.1214306499729455e-18 8.902501001875703e-20 -1.0
  outer loop
    vertex 0.5 0.0 0.0
    vertex 0.125 5.0 2.0816681711721685e-17
    vertex 0.5 0.125 0.0
  endloop
endfacet
facet normal 0.0 1.0 0.0
  outer loop
    vertex 0.0 7.0 0.125
    vertex 2.5 7.0 6.938893903907228e-18
    vertex 0.0 7.0 0.0
  endloop
endfacet
facet normal 0.0 1.0 0.0
  outer loop
    vertex 2.5 7.0 6.938893903907228e-18
    vertex 0.0 7.0 0.125
    vertex 2.5 7.0 0.125
  endloop
endfacet
facet normal 1.0 0.0 0.0
  outer loop
    vertex 3.0 0.75 6.938893903907228e-18
    vertex 3.0 0.5 0.125
    vertex 3.0 0.5 0.0
  endloop
endfacet
facet normal 1.0 0.0 0.0
  outer loop
    vertex 3.0 0.5 0.125
    vertex 3.0 0.75 6.938893903907228e-18
    vertex 3.0 0.75 0.125
  endloop
endfacet
facet normal 0.0 -1.0 0.0
  outer loop
    vertex 0.125 6.0 0.125
    vertex 0.0 6.0 2.0816681711721685e-17
    vertex 0.125 6.0 2.0816681711721685e-17
  endloop
endfacet
facet normal 0.0 -1.0 0.0
  outer loop
    vertex 0.0 6.0 2.0816681711721685e-17
    vertex 0.125 6.0 0.125
    vertex 0.0 6.0 0.125
  endloop
endfacet
facet normal -1.0 0.0 0.0
  outer loop
    vertex 0.125 6.0 0.125
    vertex 0.125 5.0 2.0816681711721685e-17
    vertex 0.125 5.0 0.125
  endloop
endfacet
facet normal -1.0 0.0 0.0
  outer loop
    vertex 0.125 5.0 2.0816681711721685e-17
    vertex 0.125 6.0 0.125
    vertex 0.125 6.0 2.0816681711721685e-17
  endloop
endfacet
facet normal 0.0 1.0 0.0
  outer loop
    vertex 0.0 5.0 0.125
    vertex 0.125 5.0 2.0816681711721685e-17
    vertex 0.0 5.0 2.0816681711721685e-17
  endloop
endfacet
facet normal 0.0 1.0 0.0
  outer loop
    vertex 0.125 5.0 2.0816681711721685e-17
    vertex 0.0 5.0 0.125
    vertex 0.125 5.0 0.125
  endloop
endfacet
facet normal -1.0 0.0 0.0
  outer loop
    vertex 0.0 5.0 0.125
    vertex 0.0 0.0 0.0
    vertex 0.0 0.0 0.125
  endloop
endfacet
facet normal -1.0 0.0 0.0
  outer loop
    vertex 0.0 0.0 0.0
    vertex 0.0 5.0 0.125
    vertex 0.0 5.0 2.0816681711721685e-17
  endloop
endfacet
facet normal 0.7071067811865476 0.7071067811865476 0.0
  outer loop
    vertex 2.5 2.0 1.3877787807814457e-17
    vertex 3.0 1.5 0.125
    vertex 3.0 1.5 1.3877787807814457e-17
  endloop
endfacet
facet normal 0.7071067811865476 0.7071067811865476 0.0
  outer loop
    vertex 3.0 1.5 0.125
    vertex 2.5 2.0 1.3877787807814457e-17
    vertex 2.5 2.0 0.125
  endloop
endfacet
facet normal 0.7071067811865476 -0.7071067811865476 0.0
  outer loop
    vertex 3.0 0.5 0.0
    vertex 2.5 0.0 0.125
    vertex 2.5 0.0 0.0
  endloop
endfacet
facet normal 0.7071067811865476 -0.7071067811865476 0.0
  outer loop
    vertex 2.5 0.0 0.125
    vertex 3.0 0.5 0.0
    vertex 3.0 0.5 0.125
  endloop
endfacet
facet normal 0.7071067811865476 -0.7071067811865476 0.0
  outer loop
    vertex 3.0 5.5 6.938893903907228e-18
    vertex 2.5 5.0 0.125
    vertex 2.5 5.0 6.938893903907228e-18
  endloop
endfacet
facet normal 0.7071067811865476 -0.7071067811865476 0.0
  outer loop
    vertex 2.5 5.0 0.125
    vertex 3.0 5.5 6.938893903907228e-18
    vertex 3.0 5.5 0.125
  endloop
endfacet
facet normal 0.7071067811865476 0.7071067811865476 0.0
  outer loop
    vertex 2.5 7.0 6.938893903907228e-18
    vertex 3.0 6.5 0.125
    vertex 3.0 6.5 6.938893903907228e-18
  endloop
endfacet
facet normal 0.7071067811865476 0.7071067811865476 0.0
  outer loop
    vertex 3.0 6.5 0.125
    vertex 2.5 7.0 6.938893903907228e-18
    vertex 2.5 7.0 0.125
  endloop
endfacet
endsolid no parts proto
